<?xml version="1.0" encoding="iso-8859-1"?>
<!-- Generator: Adobe Illustrator 19.0.0, SVG Export Plug-In . SVG Version: 6.00 Build 0)  -->
<svg version="1.1" id="Capa_1" xmlns="http://www.w3.org/2000/svg" xmlns:xlink="http://www.w3.org/1999/xlink" x="0px" y="0px"
	 viewBox="0 0 368 368" style="enable-background:new 0 0 368 368;" xml:space="preserve">
<path style="fill:#CCE4FF;" d="M360,168v160c0,17.68-14.32,32-32,32H40c-17.68,0-32-14.32-32-32V168H360z"/>
<g>
	<path style="fill:#007AFF;" d="M136,256h-24v-24c0-4.416-3.584-8-8-8s-8,3.584-8,8v24H72c-4.416,0-8,3.584-8,8s3.584,8,8,8h24v24
		c0,4.416,3.584,8,8,8s8-3.584,8-8v-24h24c4.416,0,8-3.584,8-8S140.416,256,136,256z"/>
	<path style="fill:#007AFF;" d="M296,256h-64c-4.416,0-8,3.584-8,8s3.584,8,8,8h64c4.416,0,8-3.584,8-8S300.416,256,296,256z"/>
	<path style="fill:#007AFF;" d="M336,64.808V16c0-8.824-7.176-16-16-16h-48c-8.824,0-16,7.176-16,16v48H112V16
		c0-8.824-7.176-16-16-16H48c-8.824,0-16,7.176-16,16v48.808C13.768,68.528,0,84.688,0,104v224c0,22.056,17.944,40,40,40h288
		c22.056,0,40-17.944,40-40V104C368,84.688,354.232,68.528,336,64.808z M272,16h48v48h-48V16z M48,16h48v48H48V16z M40,80h64h160h64
		c13.232,0,24,10.768,24,24v56H16v-56C16,90.768,26.768,80,40,80z M328,352H40c-13.232,0-24-10.768-24-24V176h336v152
		C352,341.232,341.232,352,328,352z"/>
</g>
<g>
</g>
<g>
</g>
<g>
</g>
<g>
</g>
<g>
</g>
<g>
</g>
<g>
</g>
<g>
</g>
<g>
</g>
<g>
</g>
<g>
</g>
<g>
</g>
<g>
</g>
<g>
</g>
<g>
</g>
</svg>
