<?xml version="1.0" encoding="iso-8859-1"?>
<!-- Generator: Adobe Illustrator 17.1.0, SVG Export Plug-In . SVG Version: 6.00 Build 0)  -->
<!DOCTYPE svg PUBLIC "-//W3C//DTD SVG 1.1//EN" "http://www.w3.org/Graphics/SVG/1.1/DTD/svg11.dtd">
<svg version="1.1" id="Capa_1" xmlns="http://www.w3.org/2000/svg" xmlns:xlink="http://www.w3.org/1999/xlink" x="0px" y="0px"
	 viewBox="0 0 202.283 202.283" style="enable-background:new 0 0 202.283 202.283;" xml:space="preserve">
<path d="M195.141,31.776h-21.205v-5.608c0-3.938-3.204-7.142-7.142-7.142h-30.652c-3.939,0-7.142,3.204-7.142,7.142v5.608H73.283
	v-5.608c0-3.938-3.204-7.142-7.142-7.142H35.489c-3.938,0-7.142,3.204-7.142,7.142v5.608H7.142C3.204,31.776,0,34.98,0,38.918v7.251
	c0,3.52,2.562,6.446,5.918,7.029v112.915c0,9.452,7.69,17.142,17.142,17.142h156.164c9.452,0,17.142-7.69,17.142-17.142V53.199
	c3.355-0.583,5.917-3.509,5.917-7.029v-7.251C202.283,34.98,199.079,31.776,195.141,31.776z M67.481,107.221h-36.53
	c-3.519,0-6.372-2.853-6.372-6.372c0-3.519,2.853-6.372,6.372-6.372h36.53c3.519,0,6.372,2.853,6.372,6.372
	C73.853,104.369,71,107.221,67.481,107.221z M171.333,107.221h-11.894v11.894c0,3.519-2.852,6.372-6.372,6.372
	c-3.519,0-6.372-2.853-6.372-6.372v-11.894h-11.893c-3.519,0-6.372-2.853-6.372-6.372c0-3.519,2.853-6.372,6.372-6.372h11.893
	V82.585c0-3.519,2.853-6.372,6.372-6.372c3.519,0,6.372,2.853,6.372,6.372v11.894h11.894c3.519,0,6.372,2.853,6.372,6.372
	C177.704,104.369,174.852,107.221,171.333,107.221z"/>
<g>
</g>
<g>
</g>
<g>
</g>
<g>
</g>
<g>
</g>
<g>
</g>
<g>
</g>
<g>
</g>
<g>
</g>
<g>
</g>
<g>
</g>
<g>
</g>
<g>
</g>
<g>
</g>
<g>
</g>
</svg>
